<?xml version="1.0" standalone="no"?>
<!DOCTYPE svg PUBLIC "-//W3C//DTD SVG 20010904//EN"
 "http://www.w3.org/TR/2001/REC-SVG-20010904/DTD/svg10.dtd">
<svg version="1.0" xmlns="http://www.w3.org/2000/svg"
 width="512.000000pt" height="512.000000pt" viewBox="0 0 512.000000 512.000000"
 preserveAspectRatio="xMidYMid meet">

<g transform="translate(0.000000,512.000000) scale(0.100000,-0.100000)"
fill="#000000" stroke="none">
<path d="M0 2560 c0 -2045 3 -2561 13 -2558 6 3 176 60 377 127 l365 121 299
-100 300 -100 302 100 303 99 300 -100 301 -101 303 101 302 101 299 -100 300
-100 302 100 303 99 373 -125 c205 -68 374 -124 375 -124 2 0 3 1152 3 2560 0
1408 -1 2560 -3 2560 -1 0 -170 -56 -375 -124 l-373 -125 -303 99 -302 100
-300 -100 -299 -100 -302 101 -303 101 -301 -101 -300 -100 -303 99 -302 100
-300 -100 -299 -100 -365 121 c-201 67 -371 124 -377 127 -10 3 -13 -513 -13
-2558z m1652 2095 c159 -52 297 -95 307 -95 9 0 111 32 226 70 115 39 213 70
217 70 5 0 8 -963 8 -2140 0 -1177 -3 -2140 -8 -2140 -4 0 -102 32 -217 70
-115 39 -216 70 -225 70 -8 0 -148 -43 -311 -96 l-296 -97 -289 97 c-159 53
-298 96 -309 96 -11 0 -115 -31 -230 -70 -115 -38 -213 -70 -217 -70 -5 0 -8
963 -8 2140 0 1177 3 2140 8 2140 4 0 102 -31 217 -70 115 -38 219 -70 230
-70 11 0 146 42 300 94 154 52 286 95 294 95 7 1 144 -42 303 -94z m2410 0
c159 -52 297 -95 307 -95 9 0 111 32 226 70 115 39 213 70 217 70 5 0 8 -963
8 -2140 0 -1177 -3 -2140 -8 -2140 -4 0 -102 32 -217 70 -115 39 -216 70 -225
70 -8 0 -148 -43 -311 -96 l-296 -97 -289 97 c-159 53 -298 96 -309 96 -11 0
-115 -31 -230 -70 -115 -38 -213 -70 -217 -70 -5 0 -8 963 -8 2140 0 1177 3
2140 8 2140 4 0 102 -31 217 -70 115 -38 219 -70 230 -70 11 0 146 42 300 94
154 52 286 95 294 95 7 1 144 -42 303 -94z"/>
<path d="M1215 4206 c-369 -85 -615 -438 -615 -886 0 -336 143 -632 380 -785
408 -264 913 -47 1073 460 137 436 -25 937 -368 1135 -131 75 -331 108 -470
76z m-15 -886 c0 -308 -4 -560 -8 -560 -20 0 -101 61 -140 105 -51 58 -105
165 -129 255 -14 49 -18 101 -17 210 0 129 3 154 27 225 29 88 81 182 130 234
32 33 113 91 129 91 4 0 8 -252 8 -560z m365 530 c62 -43 121 -114 160 -194
56 -114 70 -182 70 -336 0 -154 -14 -222 -70 -336 -19 -39 -54 -92 -77 -119
-39 -44 -120 -105 -140 -105 -4 0 -8 252 -8 560 0 391 3 560 11 560 6 0 30
-13 54 -30z"/>
<path d="M600 1790 l0 -150 755 0 755 0 0 150 0 150 -755 0 -755 0 0 -150z"/>
<path d="M600 1190 l0 -150 755 0 755 0 0 150 0 150 -755 0 -755 0 0 -150z"/>
<path d="M3020 3930 l0 -150 750 0 750 0 0 150 0 150 -750 0 -750 0 0 -150z"/>
<path d="M3020 3330 l0 -150 750 0 750 0 0 150 0 150 -750 0 -750 0 0 -150z"/>
<path d="M3635 2686 c-369 -85 -615 -438 -615 -886 0 -336 143 -632 380 -785
408 -264 913 -47 1073 460 83 264 57 575 -69 814 -133 253 -350 397 -609 407
-62 2 -123 -1 -160 -10z m-15 -886 c0 -308 -4 -560 -8 -560 -20 0 -101 61
-140 105 -51 58 -105 165 -129 255 -14 49 -18 101 -17 210 0 129 3 154 27 225
29 88 81 182 130 234 32 33 113 91 129 91 4 0 8 -252 8 -560z m365 530 c62
-43 121 -114 160 -194 56 -114 70 -182 70 -336 0 -154 -14 -222 -70 -336 -19
-39 -54 -92 -77 -119 -39 -44 -120 -105 -140 -105 -4 0 -8 252 -8 560 0 391 3
560 11 560 6 0 30 -13 54 -30z"/>
</g>
</svg>
