<?xml version="1.0" standalone="no"?>
<!DOCTYPE svg PUBLIC "-//W3C//DTD SVG 20010904//EN"
 "http://www.w3.org/TR/2001/REC-SVG-20010904/DTD/svg10.dtd">
<svg version="1.0" xmlns="http://www.w3.org/2000/svg"
 width="512.000000pt" height="512.000000pt" viewBox="0 0 512.000000 512.000000"
 preserveAspectRatio="xMidYMid meet">

<g transform="translate(0.000000,512.000000) scale(0.100000,-0.100000)"
fill="#000000" stroke="none">
<path d="M2177 5097 c-32 -18 -87 -97 -322 -457 l-283 -435 -733 -5 c-678 -5
-736 -6 -766 -23 -38 -20 -73 -82 -73 -127 0 -50 35 -107 80 -130 39 -20 56
-20 1570 -20 1514 0 1531 0 1570 20 45 23 80 80 80 130 0 45 -35 107 -73 127
-29 17 -84 18 -664 23 l-633 5 199 305 199 305 283 5 c247 4 288 7 316 23 38
20 73 82 73 127 0 50 -35 107 -80 130 -37 19 -58 20 -372 20 -326 0 -334 -1
-371 -23z"/>
<path d="M194 3528 c4 -40 51 -822 106 -1738 112 -1860 98 -1728 179 -1770 39
-19 57 -20 515 -20 l476 0 -35 54 c-65 102 -102 216 -111 347 -8 98 4 164 45
249 32 68 130 169 194 198 26 12 47 24 47 26 0 2 -14 33 -30 68 -36 77 -60
180 -60 264 0 74 29 194 65 264 21 42 24 54 13 61 -7 5 -17 9 -21 9 -16 0
-115 80 -149 119 -99 116 -127 255 -93 471 21 135 49 230 104 346 69 144 140
245 250 355 111 110 213 182 355 250 208 99 334 119 742 119 l301 0 7 143 c4
78 9 168 13 200 l6 57 -1463 0 -1462 0 6 -72z"/>
<path d="M2405 2885 c-430 -80 -753 -439 -782 -870 -5 -80 -3 -95 16 -133 14
-28 34 -48 61 -62 39 -20 55 -20 1670 -20 1615 0 1631 0 1670 20 27 14 47 34
61 62 19 38 21 53 16 133 -27 403 -311 745 -712 857 l-80 23 -925 2 c-727 1
-940 -1 -995 -12z"/>
<path d="M2022 1481 c-101 -35 -172 -116 -194 -224 -23 -108 22 -227 110 -294
88 -67 11 -64 1453 -61 l1304 3 57 28 c107 53 163 144 163 267 0 123 -56 214
-163 267 l-57 28 -1310 2 c-1249 2 -1312 2 -1363 -16z"/>
<path d="M1698 579 c-44 -23 -78 -81 -78 -133 0 -202 156 -391 358 -435 74
-16 2708 -16 2784 0 128 27 241 113 301 226 82 158 73 294 -23 343 -39 20 -55
20 -1672 20 -1606 -1 -1634 -1 -1670 -21z"/>
</g>
</svg>
