<?xml version="1.0" standalone="no"?>
<!DOCTYPE svg PUBLIC "-//W3C//DTD SVG 20010904//EN"
 "http://www.w3.org/TR/2001/REC-SVG-20010904/DTD/svg10.dtd">
<svg version="1.0" xmlns="http://www.w3.org/2000/svg"
 width="512.000000pt" height="512.000000pt" viewBox="0 0 512.000000 512.000000"
 preserveAspectRatio="xMidYMid meet">

<g transform="translate(0.000000,512.000000) scale(0.100000,-0.100000)"
fill="#000000" stroke="none">
<path d="M2715 5114 c-120 -31 -356 -139 -409 -189 -31 -29 -33 -63 -5 -99 31
-39 65 -33 176 29 186 104 296 131 413 101 189 -48 444 -218 670 -446 93 -94
250 -284 250 -303 0 -4 -461 -7 -1025 -7 -564 0 -1025 4 -1025 8 0 12 134 178
194 241 28 29 87 85 131 124 44 39 86 81 93 94 25 46 -12 103 -69 103 -69 0
-393 -337 -502 -523 l-28 -47 -112 0 c-222 0 -327 -53 -404 -203 -21 -41 -27
-70 -31 -137 -5 -106 19 -177 82 -247 l44 -48 -38 -45 c-52 -63 -80 -121 -88
-188 l-7 -57 -170 -5 c-163 -5 -173 -6 -229 -34 -187 -92 -264 -309 -175 -496
45 -96 126 -164 242 -203 15 -6 17 -26 17 -228 l0 -222 -217 -376 c-119 -207
-266 -461 -325 -564 -142 -247 -162 -303 -162 -467 -1 -104 3 -138 22 -200 36
-116 85 -196 176 -285 87 -86 155 -128 271 -166 l70 -24 804 -3 c904 -3 901
-3 1046 66 185 90 318 255 362 455 l18 77 242 0 c202 0 243 -2 243 -14 0 -8
22 -58 50 -113 110 -219 292 -370 525 -438 282 -82 610 -9 855 188 74 60 187
190 197 226 8 34 -8 73 -38 90 -39 22 -75 1 -134 -76 -93 -123 -234 -221 -395
-275 -88 -30 -105 -32 -235 -32 -159 -1 -239 17 -351 79 -216 120 -343 321
-364 577 -10 124 -30 177 -85 233 -56 55 -106 74 -195 75 -86 0 -115 12 -147
59 -27 40 -29 71 -8 115 24 51 61 66 157 66 162 0 303 -66 400 -188 l37 -46
-25 -23 c-29 -27 -32 -71 -5 -104 l19 -24 701 -5 c691 -5 701 -5 721 -26 11
-11 23 -37 27 -57 5 -31 0 -47 -26 -88 -37 -60 -39 -98 -8 -127 50 -47 110
-15 158 85 56 116 26 241 -77 318 -39 28 -41 34 -46 90 -3 34 -15 80 -28 105
-14 27 -97 121 -210 235 l-187 190 -7 105 c-15 250 -63 587 -131 925 -25 121
-41 221 -36 223 36 12 122 87 153 132 95 139 84 316 -26 438 l-37 41 44 54
c62 76 82 134 82 232 -1 65 -6 91 -27 137 -37 80 -105 149 -181 184 -58 27
-71 29 -224 32 l-163 4 -37 61 c-90 149 -290 370 -471 520 -252 210 -484 325
-667 333 -44 1 -89 1 -100 -2z m1579 -1076 c62 -19 121 -83 136 -149 16 -72 2
-124 -53 -192 l-43 -52 -208 -5 -208 -5 -24 -28 c-29 -34 -30 -56 -3 -91 l20
-26 203 0 202 0 41 -42 c58 -59 87 -128 79 -186 -9 -66 -48 -127 -104 -159
l-47 -28 -585 -3 c-580 -2 -585 -3 -602 -23 -25 -29 -23 -81 3 -105 20 -18 46
-19 564 -22 504 -2 544 -4 549 -20 13 -40 96 -478 115 -604 24 -154 51 -387
51 -434 l0 -31 -52 18 c-110 38 -201 17 -310 -70 -40 -32 -160 -147 -267 -255
l-194 -196 -61 47 c-120 91 -248 133 -407 133 -153 0 -226 -36 -284 -141 -26
-47 -30 -64 -29 -129 0 -84 20 -135 75 -189 53 -54 104 -73 205 -80 72 -5 97
-10 114 -26 33 -29 50 -77 50 -140 l0 -55 -223 0 -223 0 -13 63 c-7 34 -22 85
-34 112 -12 28 -166 302 -344 610 l-323 560 0 218 c0 166 3 218 13 221 158 46
271 174 284 324 l6 60 44 5 c55 6 86 34 86 76 0 53 -26 71 -104 71 -66 0 -68
1 -88 34 -29 47 -90 100 -153 133 l-53 28 -457 3 -458 3 0 29 c0 46 17 77 71
136 l52 54 198 0 198 0 20 26 c34 43 26 86 -20 109 -22 12 -71 15 -216 15
l-189 0 -41 43 c-55 57 -73 96 -73 158 0 94 49 163 139 195 52 19 2913 20
2975 2z m-2186 -951 c61 -40 95 -97 100 -167 5 -72 -9 -115 -53 -167 -55 -64
-95 -76 -283 -81 -159 -4 -163 -5 -182 -30 -35 -44 -20 -91 34 -112 15 -5 63
-10 107 -10 l79 0 0 -212 c0 -122 5 -230 11 -252 6 -22 155 -289 332 -595 176
-306 329 -577 338 -602 54 -140 46 -278 -21 -416 -69 -140 -189 -239 -336
-277 -91 -23 -1599 -24 -1688 -1 -189 49 -333 195 -382 388 -23 88 -15 222 18
302 13 33 166 305 339 605 174 300 321 561 327 579 8 22 12 113 12 257 l0 224
89 0 c95 0 136 10 157 38 19 25 17 65 -5 89 -18 19 -34 21 -193 25 -151 4
-178 7 -214 26 -140 72 -174 251 -67 353 76 73 24 69 769 66 l670 -2 42 -28z
m2190 -1384 c45 -21 453 -420 493 -482 16 -25 29 -58 29 -73 l0 -28 -397 0
-397 0 22 20 c52 49 29 122 -41 128 -71 6 -104 -72 -52 -123 l24 -25 -139 0
-140 0 -20 41 c-20 38 -20 42 -5 67 10 15 113 123 230 240 257 256 297 280
393 235z"/>
<path d="M2110 3770 c-17 -17 -20 -33 -20 -113 0 -102 8 -119 61 -132 20 -5
33 0 55 18 28 24 29 28 29 117 0 84 -2 93 -24 111 -30 25 -76 24 -101 -1z"/>
<path d="M3360 3770 c-17 -17 -20 -33 -20 -113 0 -102 8 -119 61 -132 20 -5
33 0 55 18 28 24 29 28 29 117 0 84 -2 93 -24 111 -30 25 -76 24 -101 -1z"/>
<path d="M2600 3673 c-32 -12 -50 -37 -50 -71 0 -27 8 -42 37 -70 87 -81 218
-101 323 -50 110 54 144 124 85 175 -34 30 -61 25 -117 -20 -59 -47 -116 -45
-190 6 -55 38 -61 40 -88 30z"/>
<path d="M1269 2410 c-176 -95 -199 -534 -36 -677 35 -31 37 -36 37 -93 l0
-60 -52 41 c-125 99 -256 134 -334 90 -61 -35 -78 -66 -82 -146 -3 -65 -1 -75
37 -152 77 -152 245 -287 376 -300 l55 -6 0 -114 0 -113 -52 41 c-126 99 -256
134 -336 89 -95 -53 -109 -172 -36 -310 75 -143 243 -274 369 -287 53 -6 55
-7 55 -35 0 -36 40 -78 75 -78 36 0 75 42 75 80 0 28 3 30 35 30 184 0 434
256 436 446 1 73 -25 121 -82 152 -81 44 -202 14 -326 -80 l-63 -47 0 114 0
115 35 0 c131 0 315 141 396 304 66 135 53 239 -38 293 -37 21 -53 25 -101 21
-72 -6 -150 -39 -229 -100 l-63 -47 0 60 c0 56 2 62 36 91 153 135 148 535 -8
661 -49 40 -125 47 -179 17z m119 -187 c23 -51 27 -70 27 -158 0 -109 -13
-167 -46 -209 -20 -25 -22 -26 -40 -10 -34 31 -54 111 -54 219 1 87 4 108 27
158 17 35 33 57 43 57 10 0 27 -22 43 -57z m-338 -670 c99 -49 220 -198 220
-270 0 -18 -5 -23 -27 -23 -101 0 -293 191 -293 292 0 37 28 37 100 1z m691
-8 c-12 -107 -195 -285 -293 -285 -37 0 -37 28 -2 98 51 102 207 227 274 220
21 -3 24 -7 21 -33z m-691 -692 c99 -49 220 -198 220 -270 0 -19 -5 -23 -29
-23 -100 0 -291 192 -291 292 0 37 28 37 100 1z m691 -8 c-12 -107 -195 -285
-293 -285 -37 0 -37 28 -2 98 51 102 207 227 274 220 21 -3 24 -7 21 -33z"/>
<path d="M4250 1450 c-36 -36 -21 -102 27 -121 35 -13 77 4 92 37 16 35 14 48
-10 78 -26 33 -79 36 -109 6z"/>
<path d="M2812 4707 c-31 -33 -29 -80 4 -106 15 -12 33 -21 40 -21 28 0 63 24
74 49 30 74 -64 136 -118 78z"/>
<path d="M2312 4507 c-31 -33 -29 -80 4 -106 15 -12 33 -21 40 -21 28 0 63 24
74 49 30 74 -64 136 -118 78z"/>
<path d="M3212 4507 c-31 -33 -29 -80 4 -106 15 -12 33 -21 40 -21 28 0 63 24
74 49 30 74 -64 136 -118 78z"/>
</g>
</svg>
